<?xml version="1.0" encoding="UTF-8"?>
<svg id="Layer_2" data-name="Layer 2" xmlns="http://www.w3.org/2000/svg" viewBox="0 0 373 69.54">
  <defs>
    <style>
      .cls-1 {
        fill: #5754f9;
      }
    </style>
  </defs>
  <g id="Layer_1-2" data-name="Layer 1">
    <g>
      <path class="cls-1" d="M155.22,24.47c-.14-.14-.3-.25-.47-.32-.18-.07-.37-.1-.56-.1h-7.17c-.38,0-.74,.14-1.01,.41-.14,.13-.25,.3-.33,.48-.07,.18-.11,.38-.1,.58v16.04c0,1.8-.46,3.22-1.38,4.23-.49,.52-1.08,.93-1.73,1.19-.65,.26-1.35,.38-2.05,.34-3.32,0-4.98-1.92-4.98-5.76V25.52c0-.2-.03-.39-.1-.58-.07-.18-.19-.35-.33-.48-.29-.28-.67-.42-1.06-.41h-7.09c-.19,0-.38,.02-.56,.09-.18,.07-.34,.18-.48,.32-.14,.14-.24,.31-.31,.49-.07,.18-.1,.38-.09,.58v16.39c0,4.2,1.03,7.46,3.09,9.79,2.06,2.33,4.78,3.5,8.14,3.5,4.35,0,7.45-1.43,9.44-4.29v2.21c0,.39,.16,.76,.43,1.03,.27,.27,.63,.43,1,.44h6.65c.19,0,.38-.03,.56-.11,.18-.08,.34-.19,.47-.34,.26-.27,.4-.63,.4-1V25.52c0-.2-.02-.39-.09-.57-.07-.18-.17-.35-.31-.49Z"/>
      <path class="cls-1" d="M329.76,19.66c.13,.14,.3,.24,.47,.32,.18,.07,.37,.1,.56,.1h6.74c.19,0,.38-.02,.56-.1,.18-.07,.34-.18,.47-.32,.14-.14,.24-.3,.31-.49,.07-.18,.1-.38,.09-.57v-5.29c0-.2-.02-.39-.09-.57-.07-.18-.17-.35-.31-.49s-.3-.25-.47-.32c-.18-.07-.37-.1-.56-.1h-6.74c-.19,0-.38,.02-.56,.1-.18,.07-.34,.18-.47,.32-.14,.14-.24,.3-.31,.49-.07,.18-.1,.38-.09,.57v5.29c0,.2,.02,.39,.09,.57,.07,.18,.17,.35,.31,.49Z"/>
      <path class="cls-1" d="M169.36,24.46c-.13-.14-.3-.25-.47-.32-.18-.07-.37-.1-.56-.09h-6.76c-.19,0-.38,.02-.56,.1-.18,.07-.34,.18-.47,.32-.14,.14-.24,.3-.31,.49-.07,.18-.1,.38-.09,.57v27.63c0,.2,.02,.39,.09,.57,.07,.18,.17,.35,.31,.49,.13,.14,.29,.25,.47,.33,.18,.08,.37,.11,.56,.11h6.76c.19,0,.38-.03,.56-.1,.18-.08,.34-.19,.47-.33,.26-.28,.41-.67,.4-1.06V25.52c0-.2-.02-.39-.09-.57-.07-.18-.17-.35-.31-.49Z"/>
      <path class="cls-1" d="M117.31,50.5c2.6-2.7,3.97-6.46,4.12-11.28,.07-2.24,.11-3.92,.11-5.06,0-1.14-.04-2.84-.11-5.11-.15-5.19-1.82-9.18-4.98-11.96s-7.39-4.18-12.67-4.18c-5.27-.02-9.48,1.37-12.63,4.18-3.15,2.8-4.8,6.79-4.96,11.96-.06,1.14-.06,2.88-.06,5.11s0,3.92,.06,5.06c.19,5.24,1.82,9.22,4.9,11.93,3.08,2.71,7.31,4.07,12.69,4.07,1.73,.03,3.46-.23,5.1-.77l1.95,2.64c.24,.37,.54,.7,.89,.97,.38,.27,.83,.41,1.29,.39h7.51c.3,0,.59-.11,.8-.32,.11-.1,.19-.22,.25-.36s.09-.28,.09-.43v-.13c-.01-.21-.07-.41-.17-.59l-4.18-6.11Zm-6.52-11.64c-.08,2.67-.73,4.65-1.97,5.94-1.25,1.3-2.93,1.95-5.04,1.95-2.1,0-3.76-.64-4.99-1.94-1.22-1.29-1.87-3.27-1.95-5.94-.04-1.1-.06-2.7-.06-4.82,0-2.12,.02-3.73,.06-4.83,.08-2.66,.74-4.63,1.98-5.92,.65-.66,1.43-1.17,2.28-1.5,.85-.33,1.76-.48,2.67-.44,2.13-.01,3.81,.63,5.04,1.92,1.23,1.29,1.88,3.28,1.94,5.95,.08,2.17,.12,3.8,.12,4.82,0,.93-.03,2.53-.09,4.8Z"/>
      <path class="cls-1" d="M160.55,19.66c.14,.14,.3,.24,.47,.32,.18,.07,.37,.1,.56,.1h6.74c.19,0,.38-.02,.56-.1,.18-.07,.34-.18,.47-.32,.13-.14,.24-.3,.31-.49,.07-.18,.1-.38,.09-.57v-5.29c0-.19-.03-.39-.09-.57-.07-.18-.17-.35-.3-.49-.14-.14-.3-.24-.47-.32-.18-.07-.37-.1-.56-.1h-6.74c-.19,0-.38,.03-.56,.1-.18,.07-.34,.18-.47,.32-.13,.14-.24,.3-.3,.49-.07,.18-.1,.38-.09,.57v5.29c0,.19,.02,.39,.09,.57,.07,.18,.17,.35,.31,.49Z"/>
      <path class="cls-1" d="M265.65,27.18c-2.14-2.47-5.06-3.7-8.76-3.7-3.44,0-6.22,1.15-8.36,3.45V14.35c0-.2-.02-.39-.09-.57-.07-.18-.17-.35-.31-.49-.14-.14-.3-.24-.47-.31-.18-.07-.37-.1-.56-.1h-6.99c-.38,0-.75,.14-1.03,.41-.14,.14-.25,.3-.32,.48-.07,.18-.11,.38-.1,.58V53.14c0,.2,.03,.39,.11,.57,.07,.18,.18,.35,.32,.48,.13,.14,.29,.26,.47,.33,.18,.08,.37,.11,.56,.11h6.47c.19,0,.38-.03,.56-.1,.18-.08,.34-.19,.47-.33,.13-.14,.24-.31,.3-.49,.07-.18,.1-.38,.1-.57v-1.88c2.1,2.63,5.06,3.95,8.88,3.95,3.74,0,6.66-1.2,8.76-3.61,2.1-2.41,3.25-5.81,3.44-10.2,.06-.51,.06-1.16,.06-2.06h0c0-.9-.02-1.59-.06-2.12-.16-4.23-1.3-7.58-3.44-10.05Zm-6.64,13.98c-.02,1.61-.49,3.18-1.34,4.53-.82,1.09-2.11,1.63-3.87,1.63s-3.05-.56-3.87-1.68c-.87-1.27-1.36-2.77-1.4-4.32l-.06-2.23,.06-2.17c.03-1.46,.53-2.86,1.43-3.98,.88-1.06,2.15-1.59,3.84-1.59,1.8,0,3.09,.55,3.87,1.64,.86,1.35,1.33,2.91,1.34,4.52,.07,.76,.11,1.39,.11,1.82s-.04,1.04-.11,1.82Z"/>
      <path class="cls-1" d="M325.17,46.97c-.14-.14-.3-.24-.48-.31-.18-.07-.37-.1-.56-.1h-4.41c-2.18,0-3.27-1.45-3.27-4.35v-10.47h7.17c.39,.01,.77-.13,1.06-.41,.14-.14,.25-.3,.32-.48,.07-.18,.11-.38,.1-.58v-4.76c0-.2-.03-.39-.1-.58-.07-.18-.18-.35-.32-.48-.29-.27-.67-.42-1.06-.41h-7.17V14.37c0-.19-.03-.39-.09-.57-.07-.18-.17-.35-.3-.49-.14-.14-.3-.24-.48-.31-.18-.07-.37-.1-.56-.1h-6.63c-.37,0-.73,.13-1,.39-.14,.13-.25,.3-.33,.48-.08,.18-.11,.38-.1,.58v9.69h0v19.02c0,7.72,3.95,11.58,11.86,11.58h5.31c.19,0,.38-.03,.56-.1,.18-.08,.34-.19,.47-.33,.13-.14,.24-.31,.3-.49,.07-.18,.1-.38,.1-.57v-5.11c0-.2-.03-.39-.09-.57-.07-.18-.17-.35-.31-.49Z"/>
      <path class="cls-1" d="M202.16,43.47c-.12-.15-.28-.27-.45-.36-.17-.08-.36-.13-.56-.13h-6.7c-.29,0-.56,.1-.79,.27-.23,.18-.4,.42-.48,.7-.66,2.16-2.15,3.72-4.59,3.72-4.91,0-5.51-4.57-5.51-7.5v-1.65c0-2.93,.58-7.5,5.51-7.5,2.44,0,3.93,1.59,4.58,3.7,.08,.28,.25,.53,.48,.71,.23,.18,.51,.27,.79,.28h6.7c.19,0,.38-.05,.56-.13,.17-.08,.33-.21,.45-.36,.12-.15,.22-.33,.27-.52,.05-.19,.06-.39,.03-.58-.63-3.83-2.14-6.65-5.09-8.46-2.51-1.53-5.46-2.16-8.87-2.16s-6.37,.63-8.87,2.16c-3.77,2.31-6.12,6.27-6.12,11.83,0,0-.03,1.12-.03,1.82s.03,1.89,.03,1.89c0,5.58,2.37,9.52,6.13,11.82,2.5,1.53,5.46,2.16,8.87,2.16s6.37-.63,8.87-2.16c2.95-1.8,4.46-4.63,5.09-8.46,.03-.19,.02-.39-.03-.58-.05-.19-.14-.37-.27-.52Z"/>
      <path class="cls-1" d="M338.57,24.46c-.14-.14-.3-.25-.47-.32-.18-.07-.37-.1-.56-.1h-6.76c-.19,0-.38,.02-.56,.1-.18,.07-.34,.18-.47,.32-.14,.14-.24,.3-.31,.49-.07,.18-.1,.38-.09,.57v27.63c0,.2,.02,.39,.09,.57,.07,.18,.17,.35,.31,.49,.13,.14,.29,.25,.47,.33,.18,.08,.37,.11,.56,.11h6.76c.19,0,.38-.03,.56-.1,.18-.08,.34-.19,.47-.33,.13-.14,.23-.31,.3-.49,.07-.18,.1-.38,.1-.57V25.52c0-.2-.02-.39-.09-.57-.07-.18-.17-.35-.31-.49Z"/>
      <path class="cls-1" d="M302.57,24.47c-.14-.14-.3-.25-.47-.32-.18-.07-.37-.1-.56-.1h-7.16c-.38,0-.74,.15-1.01,.41-.14,.13-.25,.3-.33,.48-.07,.18-.11,.38-.1,.58v16.04c0,1.8-.46,3.22-1.38,4.23-.48,.52-1.07,.93-1.73,1.19-.65,.26-1.35,.38-2.05,.34-3.32,0-4.99-1.92-4.99-5.76V25.53c0-.2-.03-.39-.1-.58-.07-.18-.19-.35-.33-.48-.29-.28-.67-.42-1.06-.41h-7.1c-.19,0-.38,.02-.56,.1-.18,.07-.34,.18-.47,.32-.14,.14-.24,.3-.31,.49-.07,.18-.1,.38-.09,.57v16.39c0,4.2,1.03,7.46,3.09,9.79,2.06,2.33,4.77,3.5,8.13,3.5,4.36,0,7.46-1.43,9.44-4.29v2.23c.01,.39,.17,.75,.43,1.03,.27,.27,.62,.43,1,.44h6.65c.19,0,.39-.03,.56-.11,.18-.08,.34-.19,.47-.34,.26-.27,.41-.64,.4-1.03V25.52c0-.2-.02-.39-.09-.57-.07-.18-.17-.35-.31-.49Z"/>
      <path class="cls-1" d="M372.96,53.05c-.06-.25-.19-.48-.39-.65l-11.74-14.64,10.32-11.4c.15-.12,.27-.27,.35-.44,.08-.17,.12-.37,.11-.56,0-.34-.14-.67-.37-.91-.23-.24-.55-.38-.89-.39h-7.68c-.27,0-.54,.05-.8,.15-.24,.11-.46,.26-.66,.44-.21,.2-.35,.33-.43,.41l-7.97,8.99V14.37c0-.2-.03-.39-.09-.57-.07-.18-.17-.35-.31-.49-.14-.14-.3-.24-.48-.31-.18-.07-.37-.1-.55-.1h-6.65c-.37,0-.73,.13-1.01,.39-.14,.13-.25,.3-.33,.48-.07,.18-.11,.38-.1,.58V53.1c0,.2,.03,.39,.1,.58,.07,.18,.18,.35,.32,.48,.12,.15,.28,.27,.45,.35,.17,.08,.36,.13,.55,.13h6.65c.19,0,.38-.03,.56-.1,.18-.08,.34-.19,.47-.33,.13-.14,.23-.31,.3-.49,.07-.18,.1-.38,.1-.57v-10.7l9.05,11.18c.27,.28,.57,.54,.89,.76,.35,.18,.73,.26,1.12,.23h7.87c.25,0,.5-.07,.71-.21,.21-.14,.37-.35,.47-.59,.09-.24,.11-.51,.05-.76Z"/>
      <path class="cls-1" d="M235.53,52.4l-11.75-14.64,10.31-11.4c.15-.12,.27-.27,.35-.44,.08-.17,.12-.37,.11-.56,0-.17-.03-.34-.09-.49s-.16-.3-.28-.42c-.11-.12-.25-.22-.41-.29-.15-.07-.32-.1-.48-.1h-7.68c-.27,0-.54,.05-.8,.15-.24,.11-.47,.26-.66,.44l-.43,.41-7.96,8.99V14.37c0-.19-.03-.39-.09-.57-.07-.18-.17-.35-.3-.49-.14-.14-.3-.24-.48-.31-.18-.07-.37-.1-.55-.1h-6.65c-.37,0-.73,.13-1,.39-.14,.13-.25,.3-.33,.48-.08,.18-.11,.38-.1,.58V53.1c0,.2,.03,.39,.11,.58,.07,.18,.18,.35,.33,.48,.12,.15,.28,.27,.45,.35,.17,.08,.36,.13,.55,.13h6.65c.19,0,.38-.03,.56-.1,.18-.08,.34-.19,.47-.33,.26-.28,.41-.67,.4-1.06v-10.7l9.06,11.18c.27,.29,.56,.55,.89,.77,.35,.18,.73,.26,1.12,.23h7.85c.26,.02,.52-.05,.73-.2,.22-.14,.39-.35,.48-.6,.09-.25,.11-.52,.05-.78-.06-.26-.21-.49-.4-.66Z"/>
      <polygon class="cls-1" points="39.15 55.81 39.15 69.54 62.45 69.54 62.45 55.81 50.79 49.09 39.15 55.81"/>
      <path class="cls-1" d="M34.77,0C15.58,0,0,15.58,0,34.77s15.58,34.77,34.77,34.77v-13.28c-11.86,0-21.49-9.63-21.49-21.49S22.91,13.28,34.77,13.28s21.49,9.63,21.49,21.49c0,3.92-1.05,7.58-2.88,10.75l11.5,6.64c2.96-5.11,4.66-11.05,4.66-17.39C69.54,15.58,53.96,0,34.77,0Z"/>
    </g>
  </g>
</svg>